# xmcd
#
# Track frame offsets:
#	150
#	12220
#	24700
#	36282
#	51480
#	65290
#	82205
#	95882
#	110132
#	123492
#	143332
#	155557
#	166430
#	184257
#	196110
#	207040
#
# Disc length: 2926 seconds
#
# Revision: 2
# Processed by: cddbd v1.5.2PL0 Copyright (c) Steve Scherf et al.
# Submitted via: EasyCDDAExtractor 12.0.1.1
#
DISCID=e50b6c10
DTITLE=Various Artist - Bella Musica - Great Country And Western Songs 1
DYEAR=1995
DGENRE=Country
TTITLE0=gibson, don - Oh Lonesome Me
TTITLE1=gibson, don - I Cant Stop Loving You
TTITLE2=williams, don - Some Broken Hearts Never Mend
TTITLE3=colter, jessie - I`m Not Liza
TTITLE4=hartford, john - Gentle On My Mind
TTITLE5=white, billy - I Need Your Love
TTITLE6=toussaint, a. - Southern Night
TTITLE7=white, billy - A Pretty Girl In San Anton
TTITLE8=weiss, larry - Rhinestone Cowboy
TTITLE9=bowling, r. - Coward Of The County
TTITLE10=williams, don - You`re My Best Friend
TTITLE11=trad. - Little Maggie
TTITLE12=trad. - The Banks Of Ohio
TTITLE13=lane, cherry - Thank God I`m A Contry Boy
TTITLE14=white, billy - Black Mountain Swing
TTITLE15=trad. - Pretty Polly
EXTD=YEAR: 1995
EXTT0=
EXTT1=
EXTT2=
EXTT3=
EXTT4=
EXTT5=
EXTT6=
EXTT7=
EXTT8=
EXTT9=
EXTT10=
EXTT11=
EXTT12=
EXTT13=
EXTT14=
EXTT15=
PLAYORDER=
